<svg xmlns="http://www.w3.org/2000/svg" width="512.000000pt" height="512.000000pt" viewBox="0 0 512.000000 512.000000" preserveAspectRatio="xMidYMid meet"><g transform="translate(0.000000,512.000000) scale(0.100000,-0.100000)" fill="#000000" stroke="none"><path d="M3004 4174 c-187 -106 -229 -141 -219 -182 3 -14 32 -70 64 -126 190 -330 296 -622 347 -961 25 -168 25 -522 0 -690 -24 -157 -84 -394 -133 -520 -34 -89 -41 -100 -65 -103 -37 -4 -218 102 -218 127 0 10 20 79 45 152 177 533 143 1116 -96 1619 -76 159 -189 351 -215 362 -12 6 -33 8 -46 5 -34 -9 -1081 -615 -1095 -634 -23 -31 -13 -65 51 -178 113 -197 148 -311 148 -485 0 -175 -32 -281 -146 -480 -66 -115 -77 -152 -53 -183 16 -22 376 -227 398 -227 30 0 66 41 120 135 165 290 221 482 221 760 -1 134 -24 307 -53 382 -5 14 -7 33 -4 42 6 18 193 131 218 131 25 0 43 -36 67 -130 53 -206 69 -397 51 -580 -28 -271 -96 -470 -259 -752 -34 -59 -62 -114 -62 -122 0 -48 27 -66 545 -365 289 -166 538 -307 554 -314 49 -18 73 1 136 109 329 558 470 1085 452 1684 -9 305 -58 581 -152 860 -75 223 -137 358 -272 598 -77 134 -100 162 -139 162 -11 0 -97 -43 -190 -96z"></path></g></svg>